<svg xmlns="http://www.w3.org/2000/svg" viewBox="0 0 49.84 116.84"><defs><style>.cls-1{fill:#00bcd4;}</style></defs><title>Asset 2</title><g id="Layer_2" data-name="Layer 2"><g id="Layer_1-2" data-name="Layer 1"><path class="cls-1" d="M34.9,0h-20A15,15,0,0,0,0,14.94v20A15,15,0,0,0,14.94,49.84h20A15,15,0,0,0,49.84,34.9v-20A15,15,0,0,0,34.9,0Zm2.59,28.5a9,9,0,0,1-9,9H21.35a9,9,0,0,1-9-9V21.35a9,9,0,0,1,9-9H28.5a9,9,0,0,1,9,9Z"/><path class="cls-1" d="M34.9,67h-20A15,15,0,0,0,0,81.93v20a15,15,0,0,0,14.94,14.94h20a15,15,0,0,0,14.94-14.94v-20A15,15,0,0,0,34.9,67Zm2.59,28.5a9,9,0,0,1-9,9H21.35a9,9,0,0,1-9-9V88.34a9,9,0,0,1,9-9H28.5a9,9,0,0,1,9,9Z"/></g></g></svg>