<svg width="24" height="24" viewBox="0 0 24 24" fill="none" xmlns="http://www.w3.org/2000/svg">
<g clip-path="url(#clip0)">
<path d="M23.9765 7.05607C23.9203 5.78085 23.714 4.90416 23.4186 4.14449C23.1139 3.33812 22.6451 2.61617 22.0308 2.01602C21.4306 1.40652 20.7039 0.932921 19.9069 0.632936C19.1428 0.337529 18.2707 0.131312 16.9955 0.0750879C15.7108 0.0141019 15.3029 0 12.0445 0C8.78604 0 8.37819 0.0141019 7.09822 0.0703262C5.823 0.126551 4.94631 0.332951 4.18682 0.628174C3.38027 0.932922 2.65833 1.40176 2.05818 2.01602C1.44868 2.61617 0.975263 3.34288 0.675095 4.13991C0.379689 4.90416 0.173472 5.77609 0.117248 7.0513C0.0562619 8.33604 0.04216 8.7439 0.04216 12.0023C0.04216 15.2608 0.0562619 15.6686 0.112486 16.9486C0.16871 18.2238 0.37511 19.1005 0.670517 19.8602C0.975263 20.6666 1.44868 21.3885 2.05818 21.9887C2.65833 22.5982 3.38503 23.0718 4.18206 23.3718C4.94631 23.6672 5.81824 23.8734 7.09364 23.9296C8.37343 23.986 8.78146 23.9999 12.0399 23.9999C15.2984 23.9999 15.7062 23.986 16.9862 23.9296C18.2614 23.8734 19.1381 23.6672 19.8976 23.3718C21.5105 22.7482 22.7857 21.4729 23.4093 19.8602C23.7045 19.096 23.9109 18.2238 23.9671 16.9486C24.0234 15.6686 24.0375 15.2608 24.0375 12.0023C24.0375 8.7439 24.0327 8.33604 23.9765 7.05607ZM21.8152 16.8549C21.7636 18.027 21.5667 18.6599 21.4026 19.0819C20.9993 20.1274 20.1695 20.9572 19.124 21.3605C18.702 21.5246 18.0645 21.7215 16.897 21.7729C15.6311 21.8293 15.2515 21.8433 12.0492 21.8433C8.84703 21.8433 8.46262 21.8293 7.20132 21.7729C6.02922 21.7215 5.39629 21.5246 4.97433 21.3605C4.45403 21.1682 3.98042 20.8634 3.59601 20.4649C3.1975 20.0758 2.89275 19.6069 2.70045 19.0866C2.53636 18.6647 2.33948 18.027 2.28802 16.8596C2.23161 15.5937 2.21769 15.2139 2.21769 12.0117C2.21769 8.80946 2.23161 8.42505 2.28802 7.16394C2.33948 5.99183 2.53636 5.3589 2.70045 4.93694C2.89275 4.41645 3.1975 3.94303 3.60077 3.55843C3.98976 3.15992 4.4586 2.85517 4.97909 2.66306C5.40105 2.49896 6.03874 2.30209 7.20609 2.25044C8.47196 2.19422 8.85179 2.18011 12.0538 2.18011C15.2608 2.18011 15.6405 2.19422 16.9018 2.25044C18.0739 2.30209 18.7068 2.49896 19.1287 2.66306C19.649 2.85517 20.1227 3.15992 20.5071 3.55843C20.9056 3.94761 21.2103 4.41645 21.4026 4.93694C21.5667 5.3589 21.7636 5.99641 21.8152 7.16394C21.8715 8.42981 21.8856 8.80946 21.8856 12.0117C21.8856 15.2139 21.8715 15.589 21.8152 16.8549Z" fill="#ED4B9E"/>
<path d="M12.0445 5.83704C8.64082 5.83704 5.87924 8.59844 5.87924 12.0023C5.87924 15.4062 8.64082 18.1676 12.0445 18.1676C15.4484 18.1676 18.2098 15.4062 18.2098 12.0023C18.2098 8.59844 15.4484 5.83704 12.0445 5.83704ZM12.0445 16.0016C9.83637 16.0016 8.04525 14.2106 8.04525 12.0023C8.04525 9.79399 9.83637 8.00305 12.0445 8.00305C14.2528 8.00305 16.0437 9.79399 16.0437 12.0023C16.0437 14.2106 14.2528 16.0016 12.0445 16.0016Z" fill="#ED4B9E"/>
<path d="M19.893 5.5933C19.893 6.38814 19.2486 7.03261 18.4535 7.03261C17.6587 7.03261 17.0142 6.38814 17.0142 5.5933C17.0142 4.79828 17.6587 4.15399 18.4535 4.15399C19.2486 4.15399 19.893 4.79828 19.893 5.5933Z" fill="#ED4B9E"/>
</g>
<defs>
<clipPath id="clip0">
<rect width="24" height="24" fill="white"/>
</clipPath>
</defs>
</svg>
